<svg xmlns="http://www.w3.org/2000/svg" xmlns:xlink="http://www.w3.org/1999/xlink" width="250" zoomAndPan="magnify" viewBox="0 0 187.5 187.499992" height="250" preserveAspectRatio="xMidYMid meet" version="1.0"><defs><clipPath id="d92988cba7"><path d="M 17.640625 158 L 169.484375 158 L 169.484375 169.484375 L 17.640625 169.484375 Z M 17.640625 158 " clip-rule="nonzero"/></clipPath><clipPath id="4707ed5fb2"><path d="M 17.640625 63 L 169.484375 63 L 169.484375 71 L 17.640625 71 Z M 17.640625 63 " clip-rule="nonzero"/></clipPath><clipPath id="5ca262b77f"><path d="M 17.640625 17.640625 L 169.484375 17.640625 L 169.484375 60 L 17.640625 60 Z M 17.640625 17.640625 " clip-rule="nonzero"/></clipPath></defs><path fill="#ffffff" d="M 0 0 L 187 0 L 187 187 L 0 187 Z M 0 0 " fill-opacity="1" fill-rule="nonzero"/><path fill="#ffffff" d="M 0 0 L 187 0 L 187 187 L 0 187 Z M 0 0 " fill-opacity="1" fill-rule="nonzero"/><path fill="#53596b" d="M 28.324219 137.824219 L 53.390625 137.824219 L 53.390625 144.421875 L 28.324219 144.421875 Z M 28.324219 137.824219 " fill-opacity="1" fill-rule="nonzero"/><path fill="#53596b" d="M 23.046875 148.378906 L 164.210938 148.378906 L 164.210938 154.976562 L 23.046875 154.976562 Z M 23.046875 148.378906 " fill-opacity="1" fill-rule="nonzero"/><path fill="#53596b" d="M 81.097656 74.5 L 106.164062 74.5 L 106.164062 81.097656 L 81.097656 81.097656 Z M 81.097656 74.5 " fill-opacity="1" fill-rule="nonzero"/><path fill="#53596b" d="M 33.601562 85.054688 L 48.113281 85.054688 L 48.113281 133.867188 L 33.601562 133.867188 Z M 33.601562 85.054688 " fill-opacity="1" fill-rule="nonzero"/><path fill="#53596b" d="M 28.324219 74.5 L 53.390625 74.5 L 53.390625 81.097656 L 28.324219 81.097656 Z M 28.324219 74.5 " fill-opacity="1" fill-rule="nonzero"/><path fill="#53596b" d="M 86.375 85.054688 L 100.886719 85.054688 L 100.886719 133.867188 L 86.375 133.867188 Z M 86.375 85.054688 " fill-opacity="1" fill-rule="nonzero"/><g clip-path="url(#d92988cba7)"><path fill="#53596b" d="M 17.773438 167.507812 C 17.773438 167.773438 17.820312 168.023438 17.921875 168.265625 C 18.023438 168.507812 18.164062 168.722656 18.351562 168.910156 C 18.535156 169.09375 18.75 169.238281 18.992188 169.335938 C 19.234375 169.4375 19.488281 169.488281 19.75 169.488281 L 167.507812 169.488281 C 167.773438 169.488281 168.023438 169.4375 168.265625 169.335938 C 168.507812 169.238281 168.722656 169.09375 168.910156 168.910156 C 169.09375 168.722656 169.238281 168.507812 169.335938 168.265625 C 169.4375 168.023438 169.488281 167.773438 169.488281 167.507812 L 169.488281 158.933594 L 17.773438 158.933594 Z M 17.773438 167.507812 " fill-opacity="1" fill-rule="nonzero"/></g><g clip-path="url(#4707ed5fb2)"><path fill="#53596b" d="M 17.773438 63.945312 L 169.488281 63.945312 L 169.488281 70.542969 L 17.773438 70.542969 Z M 17.773438 63.945312 " fill-opacity="1" fill-rule="nonzero"/></g><path fill="#53596b" d="M 133.867188 137.824219 L 158.933594 137.824219 L 158.933594 144.421875 L 133.867188 144.421875 Z M 133.867188 137.824219 " fill-opacity="1" fill-rule="nonzero"/><g clip-path="url(#5ca262b77f)"><path fill="#53596b" d="M 168.332031 51.722656 L 94.453125 17.949219 C 93.902344 17.699219 93.355469 17.699219 92.804688 17.949219 L 18.925781 51.722656 C 18.574219 51.886719 18.292969 52.128906 18.085938 52.453125 C 17.875 52.78125 17.769531 53.136719 17.773438 53.523438 L 17.773438 59.988281 L 169.488281 59.988281 L 169.488281 53.523438 C 169.488281 53.136719 169.382812 52.78125 169.175781 52.453125 C 168.964844 52.128906 168.683594 51.886719 168.332031 51.722656 Z M 168.332031 51.722656 " fill-opacity="1" fill-rule="nonzero"/></g><path fill="#53596b" d="M 139.144531 85.054688 L 153.65625 85.054688 L 153.65625 133.867188 L 139.144531 133.867188 Z M 139.144531 85.054688 " fill-opacity="1" fill-rule="nonzero"/><path fill="#53596b" d="M 81.097656 137.824219 L 106.164062 137.824219 L 106.164062 144.421875 L 81.097656 144.421875 Z M 81.097656 137.824219 " fill-opacity="1" fill-rule="nonzero"/><path fill="#53596b" d="M 133.867188 74.5 L 158.933594 74.5 L 158.933594 81.097656 L 133.867188 81.097656 Z M 133.867188 74.5 " fill-opacity="1" fill-rule="nonzero"/></svg>