<svg xmlns="http://www.w3.org/2000/svg" xmlns:xlink="http://www.w3.org/1999/xlink" width="1920" zoomAndPan="magnify" viewBox="0 0 1440 809.999993" height="1080" preserveAspectRatio="xMidYMid meet" version="1.0"><defs><clipPath id="647f78bd11"><path d="M 446.957031 131.957031 L 703 131.957031 L 703 388 L 446.957031 388 Z M 446.957031 131.957031 " clip-rule="nonzero"/></clipPath><clipPath id="18b1b912c0"><path d="M 737 131.957031 L 992.957031 131.957031 L 992.957031 388 L 737 388 Z M 737 131.957031 " clip-rule="nonzero"/></clipPath><clipPath id="4337f93c4e"><path d="M 446.957031 422 L 703 422 L 703 677.957031 L 446.957031 677.957031 Z M 446.957031 422 " clip-rule="nonzero"/></clipPath><clipPath id="b4318fbe47"><path d="M 737 422 L 992.957031 422 L 992.957031 677.957031 L 737 677.957031 Z M 737 422 " clip-rule="nonzero"/></clipPath></defs><g clip-path="url(#647f78bd11)"><path fill="#ff6378" d="M 664.082031 387.34375 L 485.222656 387.34375 C 464.121094 387.34375 446.957031 370.179688 446.957031 349.082031 L 446.957031 170.222656 C 446.957031 149.121094 464.121094 131.957031 485.222656 131.957031 L 664.082031 131.957031 C 685.179688 131.957031 702.34375 149.121094 702.34375 170.222656 L 702.34375 349.082031 C 702.34375 370.179688 685.179688 387.34375 664.082031 387.34375 Z M 664.082031 387.34375 " fill-opacity="1" fill-rule="nonzero"/></g><g clip-path="url(#18b1b912c0)"><path fill="#ffdd33" d="M 954.691406 387.34375 L 775.835938 387.34375 C 754.734375 387.34375 737.570312 370.179688 737.570312 349.082031 L 737.570312 170.222656 C 737.570312 149.121094 754.734375 131.957031 775.835938 131.957031 L 954.691406 131.957031 C 975.792969 131.957031 992.957031 149.121094 992.957031 170.222656 L 992.957031 349.082031 C 992.957031 370.179688 975.792969 387.34375 954.691406 387.34375 Z M 954.691406 387.34375 " fill-opacity="1" fill-rule="nonzero"/></g><g clip-path="url(#4337f93c4e)"><path fill="#4d76cc" d="M 664.082031 677.957031 L 485.222656 677.957031 C 464.121094 677.957031 446.957031 660.792969 446.957031 639.691406 L 446.957031 460.835938 C 446.957031 439.734375 464.121094 422.570312 485.222656 422.570312 L 664.082031 422.570312 C 685.179688 422.570312 702.34375 439.734375 702.34375 460.835938 L 702.34375 639.691406 C 702.34375 660.792969 685.179688 677.957031 664.082031 677.957031 Z M 664.082031 677.957031 " fill-opacity="1" fill-rule="nonzero"/></g><g clip-path="url(#b4318fbe47)"><path fill="#5ecbf1" d="M 865.265625 677.957031 C 848.027344 677.957031 831.304688 674.578125 815.558594 667.917969 C 800.351562 661.488281 786.695312 652.28125 774.96875 640.558594 C 763.246094 628.832031 754.039062 615.175781 747.609375 599.972656 C 740.945312 584.222656 737.570312 567.5 737.570312 550.265625 C 737.570312 533.027344 740.945312 516.304688 747.609375 500.558594 C 754.039062 485.351562 763.246094 471.695312 774.96875 459.96875 C 786.695312 448.246094 800.351562 439.039062 815.558594 432.609375 C 831.304688 425.945312 848.027344 422.570312 865.265625 422.570312 C 882.5 422.570312 899.222656 425.945312 914.972656 432.609375 C 930.175781 439.039062 943.832031 448.246094 955.558594 459.96875 C 967.28125 471.695312 976.488281 485.351562 982.917969 500.558594 C 989.578125 516.304688 992.957031 533.027344 992.957031 550.265625 C 992.957031 567.5 989.578125 584.222656 982.917969 599.972656 C 976.488281 615.175781 967.28125 628.832031 955.558594 640.558594 C 943.832031 652.28125 930.175781 661.488281 914.972656 667.917969 C 899.222656 674.578125 882.5 677.957031 865.265625 677.957031 Z M 865.265625 677.957031 " fill-opacity="1" fill-rule="nonzero"/></g></svg>