<svg xmlns="http://www.w3.org/2000/svg" xmlns:xlink="http://www.w3.org/1999/xlink" width="1920" zoomAndPan="magnify" viewBox="0 0 1440 809.999993" height="1080" preserveAspectRatio="xMidYMid meet" version="1.0"><defs><clipPath id="ab6ba7d605"><path d="M 394.496094 459 L 1045.496094 459 L 1045.496094 731 L 394.496094 731 Z M 394.496094 459 " clip-rule="nonzero"/></clipPath><clipPath id="06768b55e1"><path d="M 394.496094 79 L 1045.496094 79 L 1045.496094 351 L 394.496094 351 Z M 394.496094 79 " clip-rule="nonzero"/></clipPath></defs><path fill="#ff2768" d="M 719.996094 230.621094 C 623.847656 230.621094 545.621094 308.847656 545.621094 404.996094 C 545.621094 501.148438 623.847656 579.371094 719.996094 579.371094 C 816.148438 579.371094 894.371094 501.148438 894.371094 404.996094 C 894.371094 308.847656 816.148438 230.621094 719.996094 230.621094 Z M 731.621094 520.515625 L 731.621094 532.871094 C 731.621094 539.300781 726.425781 544.496094 719.996094 544.496094 C 713.566406 544.496094 708.371094 539.300781 708.371094 532.871094 L 708.371094 520.535156 C 657.792969 514.585938 640.191406 470.980469 639.414062 468.992188 C 637.085938 463.003906 640.050781 456.273438 646.027344 453.949219 C 651.992188 451.613281 658.757812 454.578125 661.070312 460.5625 C 661.617188 461.902344 673.960938 491.335938 708.359375 496.972656 L 708.359375 415.890625 C 668.996094 411.4375 638.609375 384.828125 638.609375 352.683594 C 638.609375 320.539062 668.996094 293.929688 708.359375 289.476562 L 708.359375 277.121094 C 708.359375 270.691406 713.554688 265.496094 719.984375 265.496094 C 726.414062 265.496094 731.609375 270.691406 731.609375 277.121094 L 731.609375 289.457031 C 782.191406 295.40625 799.789062 339.011719 800.570312 341 C 802.894531 346.988281 799.929688 353.71875 793.953125 356.042969 C 788.015625 358.378906 781.273438 355.425781 778.925781 349.476562 C 778.308594 347.941406 765.9375 318.644531 731.621094 313.019531 L 731.621094 394.101562 C 770.984375 398.554688 801.371094 425.164062 801.371094 457.308594 C 801.371094 489.453125 770.984375 516.0625 731.621094 520.515625 Z M 731.621094 520.515625 " fill-opacity="1" fill-rule="nonzero"/><g clip-path="url(#ab6ba7d605)"><path fill="#ff2768" d="M 564.140625 726.859375 C 569.253906 730.9375 576.03125 731.671875 582.160156 728.71875 C 588.402344 725.707031 592.121094 719.765625 592.121094 712.835938 L 592.121094 649.144531 C 592.121094 642.714844 597.316406 637.519531 603.746094 637.519531 L 1033.871094 637.519531 C 1040.289062 637.519531 1045.496094 632.3125 1045.496094 625.894531 L 1045.496094 532.882812 C 1045.496094 526.464844 1040.289062 521.257812 1033.871094 521.257812 L 879.457031 521.257812 C 843.476562 570.476562 785.492188 602.632812 719.996094 602.632812 C 630.019531 602.632812 554.050781 542.136719 530.242188 459.714844 L 401.03125 565.375 C 396.878906 568.792969 394.484375 573.964844 394.496094 579.535156 C 394.496094 585.054688 396.890625 590.148438 401.03125 593.507812 L 564.140625 726.867188 Z M 564.140625 726.859375 " fill-opacity="1" fill-rule="nonzero"/></g><g clip-path="url(#06768b55e1)"><path fill="#ff2768" d="M 875.851562 83.136719 C 870.738281 79.042969 863.960938 78.320312 857.835938 81.273438 C 851.589844 84.285156 847.871094 90.226562 847.871094 97.15625 L 847.871094 160.847656 C 847.871094 167.277344 842.675781 172.472656 836.246094 172.472656 L 406.121094 172.472656 C 399.703125 172.472656 394.496094 177.679688 394.496094 184.097656 L 394.496094 277.109375 C 394.496094 283.527344 399.703125 288.734375 406.121094 288.734375 L 560.535156 288.734375 C 596.515625 239.515625 654.5 207.359375 719.996094 207.359375 C 809.972656 207.359375 885.945312 267.855469 909.75 350.277344 L 1038.964844 244.617188 C 1043.113281 241.199219 1045.507812 236.027344 1045.496094 230.457031 C 1045.496094 224.9375 1043.101562 219.84375 1038.964844 216.484375 L 875.851562 83.125 Z M 875.851562 83.136719 " fill-opacity="1" fill-rule="nonzero"/></g><path fill="#ff2768" d="M 661.871094 352.683594 C 661.871094 371.957031 682.214844 388.617188 708.371094 392.511719 L 708.371094 312.855469 C 682.214844 316.75 661.871094 333.398438 661.871094 352.683594 Z M 661.871094 352.683594 " fill-opacity="1" fill-rule="nonzero"/><path fill="#ff2768" d="M 731.621094 417.480469 L 731.621094 497.136719 C 757.777344 493.242188 778.121094 476.59375 778.121094 457.308594 C 778.121094 438.023438 757.777344 421.375 731.621094 417.480469 Z M 731.621094 417.480469 " fill-opacity="1" fill-rule="nonzero"/></svg>