<svg xmlns="http://www.w3.org/2000/svg" xmlns:xlink="http://www.w3.org/1999/xlink" width="1920" zoomAndPan="magnify" viewBox="0 0 1440 809.999993" height="1080" preserveAspectRatio="xMidYMid meet" version="1.0"><defs><clipPath id="47b1429078"><path d="M 236 340 L 1204.222656 340 L 1204.222656 698.582031 L 236 698.582031 Z M 236 340 " clip-rule="nonzero"/></clipPath><clipPath id="4775ca0aa4"><path d="M 517 111.332031 L 751 111.332031 L 751 474 L 517 474 Z M 517 111.332031 " clip-rule="nonzero"/></clipPath></defs><g clip-path="url(#47b1429078)"><path fill="#5170ff" d="M 1151.273438 628.632812 C 1142.613281 632.269531 1133.558594 635.554688 1124.113281 638.4375 C 1114.640625 641.347656 1104.753906 643.878906 1094.4375 646.011719 C 1084.089844 648.167969 1073.304688 649.949219 1062.074219 651.332031 C 1045.070312 653.457031 1027.71875 654.664062 1010.035156 655.164062 C 992.289062 655.695312 974.234375 655.515625 955.878906 654.839844 C 937.488281 654.1875 918.792969 653.054688 899.808594 651.675781 C 880.785156 650.300781 861.488281 648.644531 841.886719 646.988281 C 822.542969 645.359375 803 643.707031 783.394531 642.300781 C 763.761719 640.871094 744.046875 639.691406 724.371094 638.988281 C 704.660156 638.308594 684.976562 638.085938 665.414062 638.617188 C 645.804688 639.167969 626.292969 640.417969 606.984375 642.699219 C 594.832031 644.132812 583.035156 645.9375 571.535156 648.09375 C 560.011719 650.277344 548.792969 652.808594 537.84375 655.742188 C 526.859375 658.675781 516.152344 662.011719 505.667969 665.75 C 495.148438 669.484375 484.867188 673.644531 474.773438 678.207031 L 263.328125 396.660156 C 272.894531 392.828125 282.597656 389.367188 292.492188 386.277344 C 302.363281 383.222656 312.417969 380.507812 322.699219 378.128906 C 332.957031 375.796875 343.441406 373.785156 354.199219 372.109375 C 364.917969 370.457031 375.929688 369.152344 387.226562 368.144531 C 404.230469 366.640625 421.269531 365.917969 438.398438 365.789062 C 455.488281 365.640625 472.691406 366.089844 490.035156 366.917969 C 507.363281 367.773438 524.839844 369 542.523438 370.433594 C 560.175781 371.859375 578.042969 373.488281 596.125 375.144531 C 613.953125 376.773438 631.921875 378.429688 649.929688 379.886719 C 667.910156 381.3125 685.917969 382.566406 703.847656 383.417969 C 721.753906 384.273438 739.558594 384.699219 757.164062 384.527344 C 774.714844 384.375 792.042969 383.597656 809.039062 381.988281 C 819.65625 381.011719 829.90625 379.734375 839.796875 378.15625 C 849.664062 376.574219 859.167969 374.695312 868.347656 372.535156 C 877.488281 370.378906 886.304688 367.921875 894.8125 365.160156 C 903.292969 362.40625 911.46875 359.375 919.355469 356.007812 L 1176.085938 616.546875 C 1168.175781 620.960938 1159.914062 624.972656 1151.273438 628.632812 Z M 1203.621094 619.78125 C 1203.3125 619.175781 1202.851562 618.546875 1202.230469 617.925781 L 931.570312 345.402344 C 931.105469 344.953125 930.511719 344.496094 929.847656 344.074219 C 929.183594 343.648438 928.429688 343.246094 927.601562 342.863281 C 926.777344 342.519531 925.886719 342.1875 924.945312 341.890625 C 924.003906 341.613281 923.019531 341.386719 922 341.214844 C 921.460938 341.117188 920.90625 341.035156 920.371094 340.964844 C 919.835938 340.910156 919.304688 340.859375 918.777344 340.839844 C 918.246094 340.8125 917.734375 340.8125 917.238281 340.8125 C 916.71875 340.8125 916.226562 340.839844 915.75 340.886719 C 915.355469 340.910156 914.976562 340.964844 914.601562 341.035156 C 914.230469 341.089844 913.863281 341.164062 913.523438 341.242188 C 913.171875 341.316406 912.847656 341.414062 912.535156 341.515625 C 912.21875 341.613281 911.921875 341.738281 911.644531 341.863281 C 903.644531 345.652344 895.339844 349.085938 886.703125 352.171875 C 878.027344 355.253906 869.023438 358.015625 859.640625 360.402344 C 850.226562 362.808594 840.449219 364.863281 830.261719 366.566406 C 820.046875 368.269531 809.425781 369.628906 798.375 370.65625 C 782.425781 372.136719 766.242188 372.839844 749.804688 372.984375 C 733.328125 373.136719 716.609375 372.714844 699.660156 371.910156 C 682.679688 371.082031 665.476562 369.882812 648.007812 368.449219 C 630.535156 367.042969 612.816406 365.414062 594.820312 363.757812 C 577.039062 362.105469 559.082031 360.449219 541.054688 358.996094 C 522.996094 357.519531 504.867188 356.257812 486.722656 355.378906 C 468.566406 354.507812 450.382812 354.03125 432.265625 354.15625 C 414.09375 354.28125 395.992188 355.035156 377.984375 356.613281 C 365.269531 357.714844 352.917969 359.195312 340.90625 361.078125 C 328.84375 362.953125 317.121094 365.242188 305.660156 367.921875 C 294.160156 370.605469 282.949219 373.714844 271.953125 377.226562 C 260.921875 380.761719 250.113281 384.722656 239.492188 389.140625 C 238.664062 389.464844 237.972656 389.863281 237.449219 390.3125 C 236.910156 390.765625 236.519531 391.242188 236.28125 391.746094 C 236.054688 392.25 235.96875 392.800781 236.054688 393.351562 C 236.144531 393.902344 236.394531 394.453125 236.808594 395.027344 L 457.742188 692.605469 C 458.222656 693.257812 458.824219 693.859375 459.539062 694.410156 C 460.253906 694.960938 461.066406 695.492188 461.980469 695.941406 C 462.898438 696.417969 463.898438 696.84375 464.964844 697.195312 C 466.035156 697.546875 467.160156 697.847656 468.339844 698.070312 C 468.992188 698.195312 469.65625 698.273438 470.296875 698.347656 C 470.949219 698.421875 471.597656 698.449219 472.238281 698.476562 C 472.878906 698.5 473.507812 698.5 474.117188 698.476562 C 474.734375 698.449219 475.335938 698.402344 475.925781 698.320312 C 476.414062 698.273438 476.890625 698.195312 477.34375 698.097656 C 477.804688 698.023438 478.246094 697.898438 478.671875 697.800781 C 479.097656 697.671875 479.511719 697.519531 479.902344 697.367188 C 480.300781 697.222656 480.664062 697.070312 481.015625 696.894531 C 491.425781 691.578125 502.058594 686.785156 512.929688 682.476562 C 523.761719 678.1875 534.835938 674.375 546.222656 671.039062 C 557.554688 667.726562 569.203125 664.871094 581.191406 662.488281 C 593.128906 660.082031 605.429688 658.125 618.117188 656.621094 C 636.367188 654.441406 654.707031 653.207031 673.214844 652.683594 C 691.675781 652.152344 710.300781 652.355469 729.128906 653.007812 C 747.921875 653.683594 766.929688 654.839844 786.179688 656.21875 C 805.402344 657.621094 824.859375 659.253906 844.578125 660.929688 C 863.996094 662.5625 883.574219 664.195312 903.144531 665.597656 C 922.699219 667.003906 942.265625 668.15625 961.695312 668.832031 C 981.082031 669.484375 1000.332031 669.664062 1019.273438 669.105469 C 1038.171875 668.53125 1056.757812 667.230469 1074.863281 664.941406 C 1087.578125 663.335938 1099.726562 661.308594 1111.351562 658.828125 C 1122.953125 656.34375 1134.007812 653.433594 1144.578125 650.070312 C 1155.117188 646.714844 1165.140625 642.898438 1174.710938 638.664062 C 1184.25 634.425781 1193.316406 629.738281 1201.960938 624.621094 C 1202.617188 624.222656 1203.121094 623.738281 1203.472656 623.242188 C 1203.8125 622.738281 1204.007812 622.1875 1204.027344 621.609375 C 1204.042969 621.007812 1203.902344 620.410156 1203.621094 619.78125 " fill-opacity="1" fill-rule="nonzero"/></g><path fill="#5170ff" d="M 982.410156 496.902344 C 976.777344 498.578125 971 500.109375 965.058594 501.464844 C 959.09375 502.820312 952.96875 504.023438 946.664062 505.050781 C 940.34375 506.101562 933.835938 506.980469 927.125 507.707031 C 920.980469 508.359375 914.722656 508.886719 908.378906 509.285156 C 902.023438 509.6875 895.5625 509.96875 889.023438 510.117188 C 882.476562 510.292969 875.828125 510.339844 869.109375 510.292969 C 862.375 510.238281 855.558594 510.117188 848.65625 509.890625 L 789.839844 410.628906 C 793.484375 410.503906 797.125 410.382812 800.753906 410.203125 C 804.390625 410.03125 808.019531 409.828125 811.65625 409.601562 C 815.273438 409.378906 818.90625 409.125 822.511719 408.824219 C 826.136719 408.550781 829.734375 408.222656 833.347656 407.871094 C 839.996094 407.25 846.488281 406.523438 852.835938 405.6875 C 859.164062 404.863281 865.347656 403.933594 871.40625 402.933594 C 877.457031 401.902344 883.378906 400.800781 889.183594 399.597656 C 894.980469 398.394531 900.652344 397.09375 906.234375 395.65625 L 998.835938 491.359375 C 993.507812 493.359375 988.023438 495.21875 982.410156 496.902344 Z M 1090.070312 608.976562 C 1084.335938 610.851562 1078.457031 612.535156 1072.398438 614.039062 C 1066.320312 615.566406 1060.078125 616.898438 1053.632812 618.078125 C 1047.171875 619.25 1040.515625 620.257812 1033.644531 621.089844 C 1024.613281 622.160156 1015.359375 622.964844 1005.894531 623.46875 C 996.414062 623.992188 986.710938 624.269531 976.828125 624.296875 C 966.933594 624.34375 956.839844 624.171875 946.585938 623.84375 C 936.316406 623.496094 925.886719 622.964844 915.300781 622.339844 L 852.457031 516.285156 C 859.492188 516.511719 866.453125 516.636719 873.332031 516.664062 C 880.203125 516.6875 887.019531 516.636719 893.734375 516.457031 C 900.441406 516.261719 907.078125 515.988281 913.621094 515.558594 C 920.15625 515.132812 926.597656 514.601562 932.953125 513.90625 C 939.703125 513.175781 946.234375 512.296875 952.589844 511.269531 C 958.953125 510.214844 965.109375 509.035156 971.105469 507.707031 C 977.09375 506.382812 982.90625 504.875 988.574219 503.246094 C 994.238281 501.589844 999.753906 499.785156 1005.113281 497.828125 L 1106.773438 602.855469 C 1101.351562 605.082031 1095.78125 607.117188 1090.070312 608.976562 Z M 885.871094 620.304688 C 880.421875 619.910156 874.925781 619.457031 869.410156 619.003906 C 863.878906 618.574219 858.328125 618.105469 852.746094 617.628906 C 847.148438 617.148438 841.53125 616.671875 835.890625 616.195312 C 824.445312 615.21875 812.929688 614.238281 801.371094 613.3125 C 789.816406 612.355469 778.191406 611.480469 766.527344 610.652344 C 754.855469 609.851562 743.132812 609.121094 731.367188 608.546875 C 719.609375 607.96875 707.796875 607.515625 695.945312 607.246094 L 628.570312 500.109375 C 637.691406 500.558594 646.765625 501.085938 655.832031 501.6875 C 664.871094 502.265625 673.902344 502.941406 682.90625 503.644531 C 691.898438 504.347656 700.863281 505.074219 709.785156 505.851562 C 718.71875 506.605469 727.609375 507.382812 736.445312 508.160156 C 745.398438 508.960938 754.277344 509.738281 763.078125 510.492188 C 771.871094 511.242188 780.59375 511.972656 789.238281 512.648438 C 797.871094 513.324219 806.421875 513.925781 814.902344 514.476562 C 823.363281 515.007812 831.742188 515.457031 840.027344 515.835938 L 902.132812 621.484375 C 896.753906 621.136719 891.328125 620.734375 885.871094 620.304688 Z M 657.988281 607.09375 C 649.640625 607.21875 641.273438 607.46875 632.886719 607.84375 C 624.5 608.21875 616.070312 608.722656 607.644531 609.371094 C 599.195312 610.027344 590.730469 610.832031 582.253906 611.804688 C 574.757812 612.660156 567.410156 613.636719 560.1875 614.714844 C 552.953125 615.792969 545.855469 617 538.855469 618.304688 C 531.847656 619.609375 524.953125 621.0625 518.140625 622.613281 C 511.324219 624.171875 504.601562 625.847656 497.929688 627.683594 L 474.632812 597.414062 L 649.640625 553.703125 L 682.957031 607.039062 C 674.65625 606.964844 666.328125 606.964844 657.988281 607.09375 Z M 432.339844 512.195312 C 438.972656 510.769531 445.695312 509.464844 452.515625 508.257812 C 459.324219 507.082031 466.234375 506.003906 473.265625 505.023438 C 480.289062 504.074219 487.433594 503.21875 494.730469 502.464844 C 504.925781 501.417969 515.097656 500.613281 525.253906 500.011719 C 535.398438 499.433594 545.515625 499.058594 555.609375 498.859375 C 565.691406 498.65625 575.757812 498.628906 585.804688 498.757812 C 595.820312 498.878906 605.839844 499.15625 615.824219 499.535156 L 645.289062 546.730469 L 469.304688 590.492188 L 412.601562 516.863281 C 419.113281 515.179688 425.683594 513.628906 432.339844 512.195312 Z M 348.816406 404.464844 C 355.113281 402.859375 361.480469 401.429688 367.964844 400.175781 C 374.445312 398.890625 381.03125 397.792969 387.75 396.835938 C 394.457031 395.914062 401.292969 395.105469 408.304688 394.480469 C 414.785156 393.878906 421.328125 393.421875 427.9375 393.105469 C 434.546875 392.777344 441.214844 392.578125 447.949219 392.476562 C 454.683594 392.378906 461.46875 392.378906 468.3125 392.476562 C 475.160156 392.578125 482.070312 392.777344 489.039062 393.027344 L 518.558594 493.789062 C 516.160156 493.9375 513.765625 494.089844 511.359375 494.269531 C 508.949219 494.441406 506.558594 494.621094 504.148438 494.820312 C 501.730469 495.019531 499.324219 495.21875 496.914062 495.445312 C 494.496094 495.667969 492.085938 495.894531 489.667969 496.144531 C 482.367188 496.875 475.222656 497.730469 468.1875 498.679688 C 461.152344 499.632812 454.246094 500.6875 447.4375 501.867188 C 440.617188 503.046875 433.894531 504.328125 427.261719 505.707031 C 420.601562 507.105469 414.03125 508.609375 407.511719 510.238281 L 330.132812 409.753906 C 336.292969 407.824219 342.507812 406.066406 348.816406 404.464844 Z M 525.214844 395.03125 C 533.253906 395.589844 541.355469 396.191406 549.527344 396.867188 C 557.691406 397.515625 565.929688 398.21875 574.21875 398.96875 C 582.496094 399.699219 590.84375 400.453125 599.246094 401.203125 C 605.390625 401.78125 611.554688 402.332031 617.738281 402.882812 C 623.921875 403.433594 630.101562 403.984375 636.308594 404.511719 C 642.503906 405.039062 648.722656 405.566406 654.941406 406.066406 C 661.164062 406.546875 667.382812 407.019531 673.628906 407.472656 L 683.679688 497.503906 C 671.195312 496.496094 658.640625 495.59375 646.042969 494.820312 C 633.425781 494.042969 620.765625 493.386719 608.046875 492.964844 C 595.320312 492.511719 582.53125 492.261719 569.703125 492.261719 C 556.851562 492.289062 543.933594 492.539062 530.984375 493.136719 L 501.289062 393.578125 C 509.191406 393.980469 517.167969 394.480469 525.214844 395.03125 Z M 708.976562 409.628906 C 716.683594 410.03125 724.390625 410.332031 732.109375 410.582031 C 739.835938 410.808594 747.546875 410.960938 755.257812 411.035156 C 762.953125 411.082031 770.652344 411.0625 778.351562 410.90625 L 836.253906 509.414062 C 828.207031 509.058594 820.058594 508.582031 811.828125 508.058594 C 803.589844 507.535156 795.265625 506.933594 786.871094 506.277344 C 778.449219 505.625 769.960938 504.921875 761.398438 504.199219 C 752.820312 503.445312 744.183594 502.695312 735.480469 501.914062 C 732.230469 501.640625 728.984375 501.363281 725.738281 501.0625 C 722.488281 500.785156 719.230469 500.488281 715.96875 500.210938 C 712.695312 499.910156 709.4375 499.632812 706.164062 499.355469 C 702.890625 499.082031 699.621094 498.804688 696.332031 498.53125 L 685.851562 408.296875 C 693.554688 408.800781 701.25 409.253906 708.976562 409.628906 Z M 912.605469 390.421875 C 912.316406 390.242188 911.984375 390.042969 911.609375 389.871094 C 911.253906 389.695312 910.847656 389.542969 910.421875 389.386719 C 910.011719 389.242188 909.558594 389.113281 909.082031 389.019531 C 908.757812 388.914062 908.429688 388.863281 908.109375 388.8125 C 907.773438 388.769531 907.46875 388.710938 907.136719 388.683594 C 906.828125 388.664062 906.511719 388.664062 906.199219 388.664062 C 905.898438 388.664062 905.589844 388.683594 905.324219 388.710938 C 905.207031 388.710938 905.097656 388.742188 904.996094 388.742188 C 904.878906 388.769531 904.785156 388.769531 904.683594 388.792969 C 904.578125 388.8125 904.484375 388.835938 904.375 388.835938 C 904.277344 388.863281 904.175781 388.886719 904.085938 388.914062 C 898.277344 390.472656 892.355469 391.898438 886.3125 393.199219 C 880.253906 394.53125 874.070312 395.734375 867.765625 396.8125 C 861.429688 397.917969 854.964844 398.890625 848.328125 399.769531 C 841.699219 400.652344 834.890625 401.429688 827.910156 402.101562 C 809.082031 403.910156 790.085938 404.816406 770.984375 405.066406 C 751.84375 405.3125 732.632812 404.886719 713.410156 404.035156 C 694.164062 403.183594 674.929688 401.878906 655.785156 400.347656 C 636.597656 398.824219 617.5 397.09375 598.554688 395.363281 C 581.339844 393.800781 564.335938 392.25 547.597656 390.894531 C 530.832031 389.542969 514.320312 388.363281 498.082031 387.558594 C 481.804688 386.78125 465.808594 386.335938 450.082031 386.457031 C 434.308594 386.558594 418.808594 387.203125 403.589844 388.585938 C 395.941406 389.285156 388.476562 390.144531 381.15625 391.199219 C 373.820312 392.226562 366.636719 393.457031 359.574219 394.859375 C 352.503906 396.261719 345.558594 397.867188 338.710938 399.640625 C 331.851562 401.429688 325.09375 403.410156 318.414062 405.59375 C 317.933594 405.746094 317.535156 405.945312 317.21875 406.167969 C 316.894531 406.394531 316.65625 406.667969 316.503906 406.945312 C 316.355469 407.21875 316.292969 407.519531 316.328125 407.824219 C 316.367188 408.125 316.503906 408.421875 316.742188 408.753906 L 488.839844 633.472656 C 489.050781 633.75 489.328125 634.023438 489.628906 634.273438 C 489.929688 634.5 490.28125 634.753906 490.671875 634.949219 C 491.046875 635.15625 491.472656 635.355469 491.910156 635.527344 C 492.351562 635.679688 492.816406 635.832031 493.292969 635.933594 C 493.667969 636.03125 494.042969 636.105469 494.417969 636.15625 C 494.796875 636.230469 495.171875 636.28125 495.535156 636.308594 C 495.898438 636.332031 496.261719 636.332031 496.613281 636.332031 C 496.964844 636.332031 497.304688 636.308594 497.644531 636.257812 C 497.78125 636.257812 497.90625 636.230469 498.042969 636.203125 C 498.167969 636.183594 498.304688 636.15625 498.429688 636.128906 C 498.558594 636.105469 498.683594 636.082031 498.808594 636.058594 C 498.933594 636.03125 499.058594 635.984375 499.171875 635.957031 C 506.167969 633.921875 513.226562 632.066406 520.375 630.335938 C 527.523438 628.632812 534.757812 627.054688 542.105469 625.625 C 549.441406 624.171875 556.886719 622.890625 564.488281 621.710938 C 572.074219 620.558594 579.808594 619.53125 587.695312 618.628906 C 608.875 616.167969 630 614.789062 651.070312 614.210938 C 672.058594 613.636719 692.996094 613.863281 713.851562 614.589844 C 734.652344 615.292969 755.378906 616.546875 775.96875 618.027344 C 796.535156 619.53125 816.96875 621.261719 837.210938 622.992188 C 855.558594 624.546875 873.632812 626.101562 891.378906 627.40625 C 909.109375 628.710938 926.5 629.8125 943.5 630.464844 C 960.476562 631.140625 977.058594 631.363281 993.167969 630.992188 C 1009.246094 630.589844 1024.839844 629.585938 1039.902344 627.757812 C 1047.460938 626.828125 1054.742188 625.722656 1061.820312 624.421875 C 1068.863281 623.117188 1075.679688 621.609375 1082.269531 619.910156 C 1088.867188 618.230469 1095.238281 616.320312 1101.425781 614.238281 C 1107.597656 612.132812 1113.59375 609.851562 1119.414062 607.34375 C 1119.851562 607.167969 1120.195312 606.941406 1120.453125 606.667969 C 1120.703125 606.417969 1120.863281 606.113281 1120.925781 605.8125 C 1120.988281 605.515625 1120.953125 605.183594 1120.828125 604.832031 C 1120.691406 604.507812 1120.460938 604.15625 1120.140625 603.832031 L 913.371094 391.046875 C 913.15625 390.847656 912.894531 390.621094 912.605469 390.421875 " fill-opacity="1" fill-rule="nonzero"/><g clip-path="url(#4775ca0aa4)"><path fill="#5170ff" d="M 633.78125 304.949219 C 591.359375 304.949219 556.964844 270.546875 556.964844 228.140625 C 556.964844 185.707031 591.359375 151.328125 633.78125 151.328125 C 676.199219 151.328125 710.589844 185.707031 710.589844 228.140625 C 710.589844 270.546875 676.199219 304.949219 633.78125 304.949219 Z M 633.78125 111.5 C 569.367188 111.5 517.152344 163.710938 517.152344 228.140625 C 517.152344 361.023438 633.78125 473.152344 633.78125 473.152344 C 633.78125 473.152344 750.40625 361.023438 750.40625 228.140625 C 750.40625 163.710938 698.195312 111.5 633.78125 111.5 " fill-opacity="1" fill-rule="nonzero"/></g></svg>