<svg xmlns="http://www.w3.org/2000/svg" xmlns:xlink="http://www.w3.org/1999/xlink" width="1920" zoomAndPan="magnify" viewBox="0 0 1440 809.999993" height="1080" preserveAspectRatio="xMidYMid meet" version="1.0"><defs><clipPath id="7f5e5bd18f"><path d="M 485 384.160156 L 1041 384.160156 L 1041 727.757812 L 485 727.757812 Z M 485 384.160156 " clip-rule="nonzero"/></clipPath></defs><path fill="#2a384c" d="M 456.808594 456.628906 L 945.671875 199.46875 L 910.957031 133.53125 L 422.097656 390.691406 L 456.808594 456.628906 " fill-opacity="1" fill-rule="nonzero"/><path fill="#a1cff0" d="M 843.066406 92.542969 L 426.75 311.542969 C 406.699219 322.089844 399.023438 346.863281 409.574219 366.898438 L 410.199219 368.089844 L 422.097656 390.691406 L 910.957031 133.53125 L 899.066406 110.933594 L 898.4375 109.738281 C 887.890625 89.707031 863.132812 81.992188 843.066406 92.542969 " fill-opacity="1" fill-rule="nonzero"/><path fill="#a1cff0" d="M 456.808594 456.628906 L 503.414062 545.167969 L 529.707031 595.121094 C 540.25 615.144531 565.039062 622.886719 585.089844 612.34375 L 1001.410156 393.34375 C 1021.472656 382.789062 1029.117188 357.992188 1018.574219 337.960938 L 992.273438 288.007812 L 945.671875 199.46875 L 456.808594 456.628906 " fill-opacity="1" fill-rule="nonzero"/><g clip-path="url(#7f5e5bd18f)"><path fill="#e75a59" d="M 981.566406 384.753906 L 544.625 384.753906 C 511.84375 384.753906 485.171875 413.992188 485.171875 449.878906 L 485.171875 662.671875 C 485.171875 698.5625 511.84375 727.757812 544.625 727.757812 L 981.566406 727.757812 C 1014.367188 727.757812 1041 698.5625 1041 662.671875 L 1041 449.878906 C 1041 413.992188 1014.367188 384.753906 981.566406 384.753906 " fill-opacity="1" fill-rule="nonzero"/></g><path fill="#ecc00c" d="M 957.890625 473.574219 L 893.164062 473.574219 C 873.171875 473.574219 856.859375 489.882812 856.859375 509.851562 L 856.859375 539.15625 C 856.859375 559.203125 873.171875 575.429688 893.164062 575.429688 L 957.890625 575.429688 C 977.9375 575.429688 994.195312 559.203125 994.195312 539.15625 L 994.195312 509.851562 C 994.195312 489.882812 977.9375 473.574219 957.890625 473.574219 " fill-opacity="1" fill-rule="nonzero"/><path fill="#eff4f3" d="M 548.515625 630.617188 L 555.140625 624.140625 C 556.746094 622.589844 556.789062 620.121094 555.265625 618.4375 C 553.691406 616.886719 551.175781 616.851562 549.570312 618.4375 L 542.917969 624.957031 L 536.34375 618.261719 C 534.859375 616.671875 532.324219 616.671875 530.71875 618.15625 C 529.152344 619.707031 529.117188 622.246094 530.601562 623.859375 L 537.226562 630.550781 L 530.492188 637 C 528.890625 638.550781 528.835938 641.117188 530.4375 642.667969 C 531.921875 644.214844 534.511719 644.28125 536.117188 642.730469 L 542.785156 636.253906 L 549.269531 642.945312 C 550.828125 644.46875 553.335938 644.46875 554.910156 642.945312 C 556.585938 641.464844 556.585938 638.902344 555.085938 637.351562 L 548.515625 630.617188 " fill-opacity="1" fill-rule="nonzero"/><path fill="#eff4f3" d="M 542.867188 634.105469 L 550.304688 641.851562 C 550.828125 642.386719 551.457031 642.625 552.144531 642.625 C 552.78125 642.625 553.40625 642.386719 553.941406 641.933594 C 554.382812 641.464844 554.675781 640.835938 554.730469 640.167969 C 554.730469 639.527344 554.449219 638.902344 553.980469 638.363281 L 546.457031 630.617188 L 554.097656 623.046875 C 555.140625 622.070312 555.191406 620.523438 554.207031 619.492188 C 553.253906 618.542969 551.574219 618.503906 550.585938 619.492188 L 542.917969 627.066406 L 535.316406 619.320312 C 534.332031 618.332031 532.679688 618.332031 531.761719 619.253906 C 530.71875 620.226562 530.71875 621.855469 531.707031 622.871094 L 539.285156 630.550781 L 531.535156 638.015625 C 531.027344 638.550781 530.71875 639.179688 530.71875 639.847656 C 530.71875 640.554688 530.945312 641.117188 531.464844 641.652344 C 532.398438 642.625 534.097656 642.625 535.085938 641.714844 Z M 552.144531 645.550781 C 550.640625 645.550781 549.269531 645.03125 548.246094 643.9375 L 542.730469 638.296875 L 537.097656 643.828125 C 535.03125 645.832031 531.414062 645.765625 529.332031 643.71875 C 528.316406 642.667969 527.78125 641.289062 527.78125 639.847656 C 527.78125 638.363281 528.433594 637 529.449219 635.910156 L 535.144531 630.515625 L 529.578125 624.875 C 527.5 622.695312 527.566406 619.253906 529.703125 617.128906 C 531.761719 615.058594 535.425781 615.164062 537.433594 617.234375 L 542.945312 622.871094 L 548.515625 617.34375 C 550.640625 615.339844 554.207031 615.339844 556.28125 617.40625 C 558.414062 619.597656 558.34375 623.082031 556.210938 625.167969 L 550.585938 630.699219 L 556.074219 636.292969 C 557.144531 637.390625 557.652344 638.722656 557.652344 640.273438 C 557.601562 641.714844 557.027344 643.09375 555.945312 644.042969 C 554.910156 645.03125 553.589844 645.550781 552.144531 645.550781 " fill-opacity="1" fill-rule="nonzero"/><path fill="#eff4f3" d="M 582.304688 630.617188 L 589.027344 624.140625 C 590.5625 622.589844 590.5625 620.121094 589.066406 618.4375 C 587.53125 616.886719 584.925781 616.851562 583.386719 618.4375 L 576.746094 624.957031 L 570.179688 618.261719 C 568.628906 616.671875 566.113281 616.671875 564.546875 618.15625 C 562.957031 619.707031 562.957031 622.246094 564.445312 623.859375 L 570.988281 630.550781 L 564.335938 637 C 562.730469 638.550781 562.664062 641.117188 564.21875 642.667969 C 565.765625 644.214844 568.296875 644.28125 569.878906 642.730469 L 576.628906 636.253906 L 583.09375 642.945312 C 584.601562 644.46875 587.183594 644.46875 588.734375 642.945312 C 590.351562 641.464844 590.351562 638.902344 588.855469 637.351562 L 582.304688 630.617188 " fill-opacity="1" fill-rule="nonzero"/><path fill="#eff4f3" d="M 576.628906 634.105469 L 584.148438 641.851562 C 584.601562 642.386719 585.226562 642.625 585.914062 642.625 C 586.621094 642.625 587.234375 642.386719 587.742188 641.933594 C 588.226562 641.464844 588.503906 640.835938 588.503906 640.167969 C 588.503906 639.460938 588.226562 638.902344 587.742188 638.363281 L 580.167969 630.617188 L 587.917969 623.046875 C 588.90625 622.136719 588.972656 620.523438 587.992188 619.425781 C 587.0625 618.609375 585.40625 618.503906 584.429688 619.492188 L 576.746094 627.066406 L 569.105469 619.320312 C 568.171875 618.332031 566.503906 618.332031 565.605469 619.253906 C 564.546875 620.226562 564.546875 621.855469 565.523438 622.871094 L 573.046875 630.550781 L 565.351562 638.015625 C 564.84375 638.550781 564.546875 639.179688 564.546875 639.847656 C 564.546875 640.554688 564.84375 641.183594 565.230469 641.652344 C 566.21875 642.625 567.875 642.625 568.933594 641.714844 Z M 585.914062 645.550781 C 584.429688 645.550781 583.039062 645.03125 582.019531 643.9375 L 576.558594 638.296875 L 570.9375 643.828125 C 568.757812 645.914062 565.179688 645.765625 563.175781 643.71875 C 562.144531 642.730469 561.585938 641.289062 561.585938 639.847656 C 561.585938 638.40625 562.25 637 563.226562 635.976562 L 568.933594 630.515625 L 563.414062 624.875 C 561.289062 622.695312 561.398438 619.171875 563.519531 617.128906 C 565.605469 615.058594 569.144531 615.164062 571.21875 617.234375 L 576.746094 622.871094 L 582.304688 617.34375 C 584.429688 615.339844 588.039062 615.339844 590.109375 617.40625 C 592.230469 619.707031 592.113281 623.046875 590.003906 625.167969 L 584.363281 630.699219 L 589.828125 636.292969 C 590.859375 637.351562 591.429688 638.722656 591.429688 640.167969 C 591.429688 641.652344 590.808594 643.011719 589.828125 644.042969 C 588.734375 645.03125 587.355469 645.550781 585.914062 645.550781 " fill-opacity="1" fill-rule="nonzero"/><path fill="#eff4f3" d="M 612.742188 630.617188 L 619.371094 624.140625 C 621.027344 622.589844 621.027344 620.121094 619.449219 618.4375 C 617.925781 616.886719 615.386719 616.851562 613.851562 618.4375 L 607.105469 624.957031 L 600.636719 618.261719 C 599.125 616.671875 596.546875 616.671875 594.933594 618.15625 C 593.453125 619.707031 593.453125 622.246094 594.878906 623.859375 L 601.425781 630.550781 L 594.707031 637 C 593.167969 638.550781 593.101562 641.117188 594.652344 642.667969 C 596.203125 644.214844 598.71875 644.28125 600.269531 642.730469 L 606.996094 636.253906 L 613.503906 642.945312 C 615.105469 644.46875 617.566406 644.46875 619.242188 642.945312 C 620.738281 641.464844 620.828125 638.902344 619.242188 637.351562 L 612.742188 630.617188 " fill-opacity="1" fill-rule="nonzero"/><path fill="#eff4f3" d="M 606.996094 634.105469 L 614.585938 641.851562 C 615.054688 642.386719 615.679688 642.625 616.363281 642.625 C 617.058594 642.625 617.683594 642.386719 618.207031 641.933594 C 618.644531 641.464844 618.886719 640.835938 618.886719 640.101562 C 618.886719 639.460938 618.644531 638.902344 618.207031 638.363281 L 610.6875 630.617188 L 618.378906 623.046875 C 618.886719 622.589844 619.117188 621.964844 619.1875 621.324219 C 619.1875 620.613281 618.886719 619.988281 618.378906 619.492188 C 617.445312 618.542969 615.789062 618.503906 614.871094 619.492188 L 607.105469 627 L 599.53125 619.320312 C 598.632812 618.332031 596.9375 618.332031 596.023438 619.253906 C 595.050781 620.160156 594.996094 621.855469 595.921875 622.871094 L 603.511719 630.550781 L 595.746094 638.015625 C 595.277344 638.550781 594.996094 639.179688 594.996094 639.847656 C 594.996094 640.554688 595.226562 641.117188 595.695312 641.652344 C 596.675781 642.625 598.332031 642.625 599.25 641.714844 Z M 616.363281 645.550781 C 614.871094 645.550781 613.503906 645.03125 612.460938 643.9375 L 606.941406 638.296875 L 601.335938 643.828125 C 599.25 645.914062 595.695312 645.832031 593.625 643.71875 C 592.566406 642.667969 592.058594 641.289062 592.058594 639.847656 C 592.058594 638.363281 592.648438 637 593.726562 635.976562 L 599.3125 630.515625 L 593.808594 624.875 C 591.792969 622.628906 591.832031 619.171875 593.910156 617.128906 C 596.023438 615.058594 599.648438 615.164062 601.664062 617.234375 L 607.105469 622.871094 L 612.792969 617.34375 C 614.800781 615.339844 618.433594 615.339844 620.503906 617.40625 C 621.585938 618.503906 622.152344 619.945312 622.109375 621.429688 C 622.054688 622.871094 621.480469 624.179688 620.386719 625.167969 L 614.800781 630.699219 L 620.265625 636.292969 C 621.253906 637.28125 621.816406 638.660156 621.816406 640.101562 C 621.882812 641.542969 621.304688 642.945312 620.210938 644.042969 C 619.1875 645.03125 617.792969 645.550781 616.363281 645.550781 " fill-opacity="1" fill-rule="nonzero"/><path fill="#eff4f3" d="M 646.585938 630.617188 L 653.175781 624.140625 C 654.785156 622.589844 654.785156 620.121094 653.292969 618.4375 C 651.742188 616.886719 649.222656 616.851562 647.597656 618.4375 L 640.949219 624.957031 L 634.410156 618.261719 C 632.914062 616.671875 630.324219 616.671875 628.777344 618.15625 C 627.226562 619.707031 627.152344 622.246094 628.648438 623.859375 L 635.203125 630.550781 L 628.546875 637 C 627 638.550781 626.890625 641.117188 628.546875 642.667969 C 630.042969 644.214844 632.558594 644.28125 634.105469 642.730469 L 640.824219 636.253906 L 647.265625 642.945312 C 648.867188 644.46875 651.460938 644.46875 653.011719 642.945312 C 654.546875 641.464844 654.617188 638.902344 653.011719 637.351562 L 646.585938 630.617188 " fill-opacity="1" fill-rule="nonzero"/><path fill="#eff4f3" d="M 640.824219 634.105469 L 648.34375 641.851562 C 648.867188 642.386719 649.511719 642.625 650.191406 642.625 C 650.875 642.625 651.515625 642.386719 651.96875 642 C 652.449219 641.464844 652.710938 640.835938 652.710938 640.167969 C 652.710938 639.460938 652.476562 638.902344 651.96875 638.363281 L 644.503906 630.617188 L 652.195312 623.046875 C 652.667969 622.589844 652.957031 621.992188 652.957031 621.324219 C 653.011719 620.613281 652.710938 619.988281 652.195312 619.492188 C 651.289062 618.503906 649.628906 618.503906 648.695312 619.492188 L 640.949219 627 L 633.304688 619.320312 C 632.4375 618.332031 630.726562 618.332031 629.792969 619.253906 C 628.828125 620.226562 628.777344 621.855469 629.765625 622.871094 L 637.3125 630.550781 L 629.578125 638.015625 C 629.109375 638.550781 628.828125 639.179688 628.828125 639.847656 C 628.828125 640.554688 629.054688 641.117188 629.53125 641.652344 C 630.484375 642.625 632.101562 642.625 633.09375 641.714844 Z M 650.191406 645.550781 C 648.695312 645.550781 647.320312 645.03125 646.277344 643.9375 L 640.773438 638.296875 L 635.144531 643.828125 C 633.09375 645.832031 629.53125 645.832031 627.453125 643.71875 C 626.410156 642.730469 625.902344 641.289062 625.902344 639.847656 C 625.902344 638.40625 626.464844 637 627.519531 635.976562 L 633.144531 630.515625 L 627.625 624.875 C 625.546875 622.695312 625.621094 619.253906 627.734375 617.128906 C 629.792969 615.058594 633.546875 615.164062 635.429688 617.234375 L 640.949219 622.871094 L 646.636719 617.34375 C 648.644531 615.339844 652.324219 615.339844 654.335938 617.449219 C 655.351562 618.503906 655.9375 619.945312 655.9375 621.429688 C 655.867188 622.871094 655.296875 624.179688 654.226562 625.167969 L 648.589844 630.699219 L 654.109375 636.292969 C 655.136719 637.351562 655.660156 638.722656 655.660156 640.167969 C 655.660156 641.652344 655.089844 643.011719 654.027344 644.042969 C 653.011719 645.03125 651.6875 645.550781 650.191406 645.550781 " fill-opacity="1" fill-rule="nonzero"/><path fill="#eff4f3" d="M 719.765625 630.617188 L 726.414062 624.140625 C 727.964844 622.589844 728.03125 620.121094 726.46875 618.4375 C 724.917969 616.886719 722.394531 616.851562 720.78125 618.4375 L 714.191406 624.957031 L 707.566406 618.261719 C 706.03125 616.671875 703.554688 616.671875 702.003906 618.15625 C 700.351562 619.707031 700.351562 622.246094 701.898438 623.859375 L 708.433594 630.550781 L 701.667969 637 C 700.164062 638.550781 700.164062 641.117188 701.667969 642.667969 C 703.21875 644.214844 705.734375 644.28125 707.347656 642.730469 L 713.941406 636.253906 L 720.5625 642.945312 C 722.101562 644.46875 724.589844 644.46875 726.136719 642.945312 C 727.738281 641.464844 727.738281 638.902344 726.296875 637.351562 L 719.765625 630.617188 " fill-opacity="1" fill-rule="nonzero"/><path fill="#eff4f3" d="M 714.019531 634.105469 L 721.59375 641.851562 C 722.050781 642.386719 722.675781 642.625 723.382812 642.625 C 724.027344 642.625 724.640625 642.386719 725.144531 641.933594 C 726.136719 641.007812 726.136719 639.355469 725.214844 638.296875 L 717.625 630.617188 L 725.394531 623.046875 C 726.414062 622.070312 726.414062 620.523438 725.425781 619.492188 C 724.464844 618.503906 722.785156 618.503906 721.820312 619.492188 L 714.125 627.066406 L 706.550781 619.320312 C 705.558594 618.332031 703.960938 618.332031 703.035156 619.253906 C 702.527344 619.707031 702.234375 620.332031 702.234375 621.042969 C 702.179688 621.710938 702.460938 622.351562 702.914062 622.808594 L 710.503906 630.550781 L 702.703125 638.082031 C 701.765625 639.003906 701.765625 640.664062 702.742188 641.652344 C 703.675781 642.625 705.34375 642.625 706.296875 641.714844 Z M 723.382812 645.550781 C 721.886719 645.550781 720.5625 645.03125 719.457031 643.9375 L 713.941406 638.296875 L 708.316406 643.828125 C 706.242188 645.832031 702.632812 645.832031 700.605469 643.71875 C 698.511719 641.570312 698.511719 638.082031 700.6875 635.976562 L 706.367188 630.515625 L 700.789062 624.875 C 699.828125 623.859375 699.242188 622.457031 699.242188 620.976562 C 699.289062 619.492188 699.882812 618.15625 700.976562 617.128906 C 702.984375 615.125 706.667969 615.164062 708.671875 617.234375 L 714.191406 622.871094 L 719.765625 617.34375 C 721.886719 615.339844 725.480469 615.339844 727.511719 617.449219 C 729.625 619.597656 729.570312 623.046875 727.433594 625.167969 L 721.820312 630.699219 L 727.332031 636.292969 C 729.410156 638.550781 729.34375 642 727.152344 644.042969 C 726.136719 645.03125 724.800781 645.550781 723.382812 645.550781 " fill-opacity="1" fill-rule="nonzero"/><path fill="#eff4f3" d="M 753.527344 630.617188 L 760.136719 624.140625 C 761.683594 622.589844 761.863281 620.121094 760.230469 618.4375 C 758.761719 616.886719 756.222656 616.851562 754.621094 618.4375 L 747.957031 624.957031 L 741.40625 618.261719 C 739.847656 616.671875 737.320312 616.671875 735.785156 618.15625 C 734.167969 619.707031 734.113281 622.246094 735.71875 623.859375 L 742.144531 630.550781 L 735.488281 637 C 733.941406 638.550781 733.941406 641.117188 735.488281 642.667969 C 736.988281 644.214844 739.578125 644.28125 741.128906 642.730469 L 747.78125 636.253906 L 754.289062 642.945312 C 755.820312 644.46875 758.40625 644.46875 759.949219 642.945312 C 761.554688 641.464844 761.554688 638.902344 760.058594 637.351562 L 753.527344 630.617188 " fill-opacity="1" fill-rule="nonzero"/><path fill="#eff4f3" d="M 747.832031 634.105469 L 755.359375 641.851562 C 755.820312 642.386719 756.453125 642.625 757.136719 642.625 C 757.773438 642.625 758.476562 642.386719 758.933594 641.933594 C 759.441406 641.464844 759.738281 640.835938 759.738281 640.167969 C 759.738281 639.527344 759.441406 638.902344 758.992188 638.363281 L 751.46875 630.617188 L 759.113281 623.046875 C 759.621094 622.589844 759.886719 621.882812 759.886719 621.257812 C 759.886719 620.585938 759.675781 619.945312 759.203125 619.492188 C 758.226562 618.503906 756.628906 618.503906 755.664062 619.492188 L 747.910156 627 L 740.3125 619.320312 C 739.402344 618.332031 737.746094 618.332031 736.757812 619.253906 C 735.785156 620.226562 735.785156 621.855469 736.757812 622.808594 L 744.210938 630.550781 L 736.511719 638.015625 C 736.066406 638.550781 735.785156 639.179688 735.785156 639.847656 C 735.785156 640.554688 736.066406 641.117188 736.511719 641.652344 C 737.441406 642.625 739.167969 642.625 740.136719 641.714844 Z M 757.136719 645.550781 C 755.664062 645.550781 754.289062 645.03125 753.234375 643.9375 L 747.78125 638.296875 L 742.144531 643.828125 C 740.085938 645.832031 736.425781 645.765625 734.449219 643.71875 C 733.433594 642.667969 732.863281 641.289062 732.863281 639.847656 C 732.863281 638.363281 733.433594 637 734.449219 635.976562 L 740.085938 630.515625 L 734.621094 624.875 C 732.496094 622.695312 732.5625 619.253906 734.753906 617.128906 C 736.8125 615.058594 740.4375 615.164062 742.449219 617.234375 L 747.957031 622.871094 L 753.589844 617.34375 C 755.710938 615.339844 759.273438 615.339844 761.273438 617.449219 C 762.316406 618.4375 762.824219 619.773438 762.824219 621.257812 C 762.824219 622.695312 762.25 624.140625 761.21875 625.167969 L 755.613281 630.699219 L 761.113281 636.292969 C 762.144531 637.390625 762.707031 638.722656 762.652344 640.273438 C 762.652344 641.714844 762.023438 643.09375 760.996094 644.042969 C 759.949219 645.03125 758.582031 645.550781 757.136719 645.550781 " fill-opacity="1" fill-rule="nonzero"/><path fill="#eff4f3" d="M 783.90625 630.617188 L 790.644531 624.140625 C 792.230469 622.589844 792.230469 620.121094 790.644531 618.4375 C 789.132812 616.886719 786.671875 616.851562 785.058594 618.4375 L 778.351562 624.957031 L 771.84375 618.261719 C 770.292969 616.671875 767.785156 616.671875 766.289062 618.15625 C 764.628906 619.707031 764.628906 622.246094 766.152344 623.859375 L 772.65625 630.550781 L 765.953125 637 C 764.320312 638.550781 764.320312 641.117188 765.871094 642.667969 C 767.421875 644.214844 770.011719 644.28125 771.507812 642.730469 L 778.226562 636.253906 L 784.710938 642.945312 C 786.328125 644.46875 788.8125 644.46875 790.402344 642.945312 C 791.953125 641.464844 792.019531 638.902344 790.523438 637.351562 L 783.90625 630.617188 " fill-opacity="1" fill-rule="nonzero"/><path fill="#eff4f3" d="M 778.226562 634.105469 L 785.820312 641.851562 C 786.261719 642.386719 786.886719 642.625 787.582031 642.625 C 788.261719 642.625 788.902344 642.386719 789.375 641.933594 C 790.347656 640.945312 790.402344 639.355469 789.480469 638.363281 L 781.800781 630.617188 L 789.585938 623.046875 C 790.574219 622.070312 790.574219 620.523438 789.585938 619.492188 C 788.640625 618.503906 787.0625 618.503906 786.089844 619.492188 L 778.351562 627.066406 L 770.828125 619.320312 C 769.894531 618.332031 768.167969 618.332031 767.25 619.171875 C 766.796875 619.707031 766.460938 620.332031 766.460938 621.042969 C 766.460938 621.683594 766.753906 622.351562 767.195312 622.808594 L 774.789062 630.550781 L 766.964844 638.015625 C 766.515625 638.550781 766.289062 639.179688 766.207031 639.847656 C 766.207031 640.488281 766.460938 641.117188 766.898438 641.652344 C 767.886719 642.625 769.539062 642.625 770.523438 641.714844 Z M 787.582031 645.550781 C 786.152344 645.550781 784.765625 645.03125 783.738281 643.9375 L 778.179688 638.296875 L 772.605469 643.828125 C 770.523438 645.832031 766.898438 645.832031 764.789062 643.757812 C 763.8125 642.667969 763.234375 641.289062 763.285156 639.738281 C 763.332031 638.296875 763.933594 636.925781 764.964844 635.910156 L 770.605469 630.515625 L 765.136719 624.875 C 764.027344 623.859375 763.519531 622.417969 763.519531 620.90625 C 763.519531 619.425781 764.148438 618.117188 765.246094 617.0625 C 767.140625 615.164062 770.878906 615.164062 772.925781 617.234375 L 778.40625 622.871094 L 784.019531 617.34375 C 786.152344 615.339844 789.707031 615.339844 791.714844 617.449219 C 793.847656 619.597656 793.847656 623.046875 791.660156 625.167969 L 786.046875 630.699219 L 791.589844 636.292969 C 793.675781 638.472656 793.566406 642 791.433594 644.042969 C 790.347656 645.03125 789.027344 645.550781 787.582031 645.550781 " fill-opacity="1" fill-rule="nonzero"/><path fill="#eff4f3" d="M 817.738281 630.617188 L 824.464844 624.140625 C 826 622.589844 826 620.121094 824.464844 618.4375 C 822.964844 616.886719 820.4375 616.851562 818.902344 618.4375 L 812.167969 624.957031 L 805.691406 618.261719 C 804.125 616.671875 801.546875 616.671875 799.984375 618.15625 C 798.445312 619.707031 798.445312 622.246094 799.871094 623.859375 L 806.425781 630.550781 L 799.757812 637 C 798.164062 638.550781 798.164062 641.117188 799.714844 642.667969 C 801.253906 644.214844 803.859375 644.28125 805.394531 642.730469 L 811.996094 636.253906 L 818.546875 642.945312 C 820.097656 644.46875 822.617188 644.46875 824.234375 642.945312 C 825.78125 641.464844 825.835938 638.902344 824.285156 637.351562 L 817.738281 630.617188 " fill-opacity="1" fill-rule="nonzero"/><path fill="#eff4f3" d="M 812.058594 634.105469 L 819.636719 641.851562 C 820.097656 642.386719 820.730469 642.625 821.414062 642.625 C 822.054688 642.625 822.671875 642.386719 823.152344 642 C 823.660156 641.464844 823.941406 640.835938 823.941406 640.167969 C 823.941406 639.460938 823.726562 638.832031 823.25 638.363281 L 815.65625 630.617188 L 823.429688 623.046875 C 824.414062 622.070312 824.414062 620.523438 823.429688 619.492188 C 822.527344 618.503906 820.839844 618.503906 819.96875 619.425781 L 812.167969 627 L 804.632812 619.320312 C 803.679688 618.332031 802.007812 618.332031 801.039062 619.253906 C 800.050781 620.160156 800.050781 621.855469 801.039062 622.871094 L 808.503906 630.550781 L 800.785156 638.015625 C 799.835938 639.003906 799.757812 640.664062 800.738281 641.652344 C 801.71875 642.625 803.378906 642.625 804.296875 641.714844 Z M 821.414062 645.550781 C 819.917969 645.550781 818.472656 645.03125 817.527344 643.9375 L 811.996094 638.296875 L 806.425781 643.828125 C 804.296875 645.832031 800.738281 645.832031 798.605469 643.757812 C 796.496094 641.542969 796.601562 638.015625 798.726562 635.976562 L 804.296875 630.515625 L 798.898438 624.875 C 796.777344 622.695312 796.839844 619.253906 798.898438 617.128906 C 801.039062 615.058594 804.632812 615.164062 806.726562 617.234375 L 812.242188 622.871094 L 817.847656 617.34375 C 819.796875 615.339844 823.546875 615.339844 825.554688 617.449219 C 827.671875 619.597656 827.671875 623.046875 825.488281 625.167969 L 819.796875 630.699219 L 825.3125 636.292969 C 826.367188 637.351562 826.863281 638.722656 826.863281 640.167969 C 826.863281 641.652344 826.300781 643.011719 825.222656 644.042969 C 824.234375 645.03125 822.84375 645.550781 821.414062 645.550781 " fill-opacity="1" fill-rule="nonzero"/><path fill="#eff4f3" d="M 882.191406 630.617188 L 888.898438 624.140625 C 890.449219 622.589844 890.449219 620.121094 888.980469 618.4375 C 887.402344 616.886719 884.835938 616.851562 883.265625 618.4375 L 876.609375 624.957031 L 870.058594 618.261719 C 868.472656 616.671875 865.984375 616.671875 864.449219 618.15625 C 862.882812 619.707031 862.882812 622.246094 864.382812 623.859375 L 870.914062 630.550781 L 864.207031 637 C 862.65625 638.550781 862.59375 641.117188 864.101562 642.667969 C 865.703125 644.214844 868.175781 644.28125 869.792969 642.730469 L 876.433594 636.253906 L 883.003906 642.945312 C 884.535156 644.46875 887.066406 644.46875 888.605469 642.945312 C 890.167969 641.464844 890.277344 638.902344 888.671875 637.351562 L 882.191406 630.617188 " fill-opacity="1" fill-rule="nonzero"/><path fill="#eff4f3" d="M 876.5 634.105469 L 884.023438 641.851562 C 884.480469 642.386719 885.132812 642.625 885.824219 642.625 C 886.507812 642.625 887.148438 642.386719 887.582031 641.933594 C 888.097656 641.464844 888.390625 640.835938 888.390625 640.167969 C 888.390625 639.460938 888.097656 638.832031 887.636719 638.363281 L 880.0625 630.617188 L 887.882812 623.046875 C 888.84375 622.136719 888.84375 620.523438 887.882812 619.425781 C 886.949219 618.542969 885.277344 618.503906 884.328125 619.492188 L 876.609375 627 L 868.980469 619.320312 C 868.042969 618.332031 866.464844 618.332031 865.476562 619.253906 C 864.5 620.160156 864.449219 621.855469 865.414062 622.871094 L 873 630.550781 L 865.175781 638.015625 C 864.273438 639.003906 864.207031 640.664062 865.175781 641.652344 C 866.105469 642.625 867.761719 642.625 868.804688 641.714844 Z M 885.824219 645.550781 C 884.328125 645.550781 883.003906 645.03125 881.960938 643.9375 L 876.433594 638.296875 L 870.808594 643.828125 C 868.644531 645.914062 865.144531 645.832031 863.0625 643.757812 C 861.003906 641.570312 861.042969 638.125 863.136719 635.976562 L 868.804688 630.515625 L 863.285156 624.875 C 861.214844 622.695312 861.285156 619.171875 863.394531 617.128906 C 865.53125 615.058594 869.03125 615.164062 871.113281 617.234375 L 876.609375 622.871094 L 882.242188 617.34375 C 884.328125 615.339844 887.9375 615.339844 889.996094 617.449219 C 892.082031 619.597656 892.027344 623.082031 889.941406 625.167969 L 884.246094 630.699219 L 889.769531 636.292969 C 890.789062 637.351562 891.332031 638.722656 891.332031 640.167969 C 891.332031 641.652344 890.703125 643.011719 889.660156 644.042969 C 888.605469 645.03125 887.230469 645.550781 885.824219 645.550781 " fill-opacity="1" fill-rule="nonzero"/><path fill="#eff4f3" d="M 915.96875 630.617188 L 922.675781 624.140625 C 924.238281 622.589844 924.292969 620.121094 922.675781 618.4375 C 921.179688 616.886719 918.65625 616.851562 917.046875 618.4375 L 910.398438 624.957031 L 903.890625 618.261719 C 902.394531 616.671875 899.828125 616.671875 898.226562 618.15625 C 896.675781 619.707031 896.609375 622.246094 898.171875 623.859375 L 904.707031 630.550781 L 897.996094 637 C 896.375 638.550781 896.375 641.117188 897.925781 642.667969 C 899.476562 644.214844 902.007812 644.28125 903.554688 642.730469 L 910.277344 636.253906 L 916.769531 642.945312 C 918.304688 644.46875 920.84375 644.46875 922.449219 642.945312 C 924 641.464844 924.066406 638.902344 922.503906 637.351562 L 915.96875 630.617188 " fill-opacity="1" fill-rule="nonzero"/><path fill="#eff4f3" d="M 910.332031 634.105469 L 917.796875 641.933594 C 918.265625 642.386719 918.933594 642.625 919.644531 642.625 C 920.3125 642.625 920.953125 642.386719 921.472656 641.933594 C 922.40625 641.007812 922.449219 639.355469 921.472656 638.363281 L 913.84375 630.617188 L 921.644531 623.046875 C 922.675781 622.070312 922.621094 620.523438 921.644531 619.492188 C 920.738281 618.542969 919.066406 618.503906 918.09375 619.492188 L 910.398438 627.066406 L 902.804688 619.320312 C 901.886719 618.332031 900.230469 618.332031 899.292969 619.253906 C 898.25 620.226562 898.25 621.855469 899.238281 622.808594 L 906.765625 630.550781 L 899.011719 638.015625 C 898.492188 638.550781 898.25 639.179688 898.25 639.847656 C 898.226562 640.488281 898.492188 641.117188 898.960938 641.652344 C 899.9375 642.625 901.605469 642.625 902.574219 641.714844 Z M 919.644531 645.550781 C 918.148438 645.550781 916.769531 645.03125 915.726562 643.9375 L 910.277344 638.296875 L 904.582031 643.828125 C 902.53125 645.832031 898.960938 645.832031 896.890625 643.757812 C 895.859375 642.667969 895.285156 641.289062 895.285156 639.820312 C 895.355469 638.296875 895.914062 636.925781 897.007812 635.910156 L 902.574219 630.515625 L 897.117188 624.875 C 895.003906 622.695312 895.058594 619.253906 897.183594 617.128906 C 899.292969 615.058594 902.996094 615.164062 904.933594 617.234375 L 910.398438 622.871094 L 916.035156 617.34375 C 918.148438 615.339844 921.699219 615.339844 923.785156 617.40625 C 925.828125 619.597656 925.828125 623.046875 923.785156 625.167969 L 918.09375 630.699219 L 923.613281 636.292969 C 925.667969 638.472656 925.617188 642 923.484375 644.042969 C 922.449219 645.03125 921.074219 645.550781 919.644531 645.550781 " fill-opacity="1" fill-rule="nonzero"/><path fill="#eff4f3" d="M 946.40625 630.617188 L 953.132812 624.140625 C 954.734375 622.589844 954.734375 620.121094 953.183594 618.4375 C 951.632812 616.886719 949.117188 616.851562 947.503906 618.4375 L 940.832031 624.957031 L 934.289062 618.261719 C 932.789062 616.671875 930.261719 616.671875 928.714844 618.15625 C 927.054688 619.707031 927.054688 622.246094 928.59375 623.859375 L 935.085938 630.550781 L 928.4375 637 C 926.886719 638.550781 926.816406 641.117188 928.367188 642.667969 C 929.929688 644.214844 932.457031 644.28125 934.070312 642.730469 L 940.660156 636.253906 L 947.269531 642.945312 C 948.761719 644.46875 951.285156 644.46875 952.832031 642.945312 C 954.5 641.464844 954.5 638.902344 952.949219 637.351562 L 946.40625 630.617188 " fill-opacity="1" fill-rule="nonzero"/><path fill="#eff4f3" d="M 940.660156 634.105469 L 948.300781 641.851562 C 948.761719 642.386719 949.382812 642.625 950.066406 642.625 C 950.707031 642.625 951.335938 642.386719 951.820312 642 C 952.324219 641.464844 952.617188 640.835938 952.617188 640.167969 C 952.617188 639.460938 952.375 638.902344 951.867188 638.363281 L 944.347656 630.617188 L 952.070312 623.046875 C 953.132812 622.070312 953.132812 620.523438 952.148438 619.492188 C 951.226562 618.542969 949.507812 618.503906 948.515625 619.492188 L 940.832031 627 L 933.257812 619.320312 C 932.273438 618.332031 930.652344 618.332031 929.691406 619.253906 C 929.171875 619.707031 928.945312 620.269531 928.945312 620.976562 C 928.890625 621.683594 929.171875 622.351562 929.691406 622.808594 L 937.15625 630.550781 L 929.457031 638.015625 C 928.484375 639.003906 928.484375 640.664062 929.402344 641.652344 C 930.316406 642.625 931.976562 642.625 933.019531 641.714844 Z M 950.066406 645.550781 C 948.582031 645.550781 947.195312 645.03125 946.179688 643.9375 L 940.605469 638.296875 L 935.019531 643.828125 C 932.910156 645.914062 929.328125 645.765625 927.273438 643.757812 C 925.269531 641.570312 925.269531 638.125 927.394531 635.976562 L 933.019531 630.515625 L 927.574219 624.875 C 926.539062 623.859375 925.945312 622.417969 925.945312 620.90625 C 926.003906 619.425781 926.589844 618.117188 927.675781 617.128906 C 929.691406 615.125 933.351562 615.164062 935.375 617.234375 L 940.832031 622.871094 L 946.472656 617.34375 C 948.582031 615.339844 952.203125 615.339844 954.207031 617.40625 C 956.339844 619.667969 956.285156 623.082031 954.152344 625.167969 L 948.484375 630.699219 L 953.992188 636.292969 C 955.023438 637.351562 955.597656 638.722656 955.53125 640.167969 C 955.53125 641.652344 954.96875 643.011719 953.820312 644.042969 C 952.832031 645.03125 951.507812 645.550781 950.066406 645.550781 " fill-opacity="1" fill-rule="nonzero"/><path fill="#eff4f3" d="M 980.222656 630.617188 L 986.953125 624.140625 C 988.503906 622.589844 988.503906 620.121094 986.953125 618.4375 C 985.457031 616.886719 982.878906 616.851562 981.332031 618.4375 L 974.621094 624.957031 L 968.105469 618.261719 C 966.554688 616.671875 963.988281 616.671875 962.492188 618.15625 C 960.886719 619.707031 960.886719 622.246094 962.410156 623.859375 L 968.917969 630.550781 L 962.207031 637 C 960.710938 638.550781 960.601562 641.117188 962.15625 642.667969 C 963.734375 644.214844 966.21875 644.28125 967.875 642.730469 L 974.5 636.253906 L 981.085938 642.945312 C 982.53125 644.46875 985.070312 644.46875 986.671875 642.945312 C 988.222656 641.464844 988.277344 638.902344 986.726562 637.351562 L 980.222656 630.617188 " fill-opacity="1" fill-rule="nonzero"/><path fill="#eff4f3" d="M 974.5 634.105469 L 982.128906 641.851562 C 982.53125 642.386719 983.214844 642.625 983.855469 642.625 C 984.539062 642.625 985.175781 642.386719 985.648438 641.933594 C 986.671875 641.007812 986.671875 639.355469 985.699219 638.363281 L 978.175781 630.617188 L 985.859375 623.046875 C 986.847656 622.070312 986.847656 620.523438 985.859375 619.492188 C 985.003906 618.542969 983.269531 618.503906 982.355469 619.492188 L 974.554688 627 L 967.035156 619.320312 C 966.097656 618.332031 964.441406 618.332031 963.519531 619.171875 C 963.011719 619.707031 962.78125 620.332031 962.71875 621.042969 C 962.71875 621.683594 962.933594 622.351562 963.476562 622.871094 L 970.996094 630.550781 L 963.289062 638.015625 C 962.257812 639.003906 962.257812 640.664062 963.171875 641.652344 C 964.160156 642.625 965.820312 642.625 966.808594 641.714844 Z M 983.855469 645.550781 C 982.355469 645.550781 980.929688 644.960938 979.941406 643.9375 L 974.429688 638.296875 L 968.867188 643.828125 C 966.726562 645.914062 963.171875 645.832031 961.09375 643.757812 C 958.972656 641.570312 959.03125 638.082031 961.167969 635.976562 L 966.859375 630.515625 L 961.34375 624.875 C 960.355469 623.859375 959.726562 622.417969 959.792969 620.90625 C 959.847656 619.492188 960.40625 618.117188 961.511719 617.128906 C 963.476562 615.125 967.0625 615.164062 969.15625 617.234375 L 974.621094 622.871094 L 980.273438 617.34375 C 982.355469 615.339844 985.964844 615.339844 987.96875 617.449219 C 990.109375 619.597656 990.054688 623.082031 987.925781 625.167969 L 982.308594 630.699219 L 987.742188 636.292969 C 989.882812 638.472656 989.839844 642 987.714844 644.042969 C 986.671875 645.03125 985.285156 645.550781 983.855469 645.550781 " fill-opacity="1" fill-rule="nonzero"/></svg>