<svg xmlns="http://www.w3.org/2000/svg" xmlns:xlink="http://www.w3.org/1999/xlink" width="1920" zoomAndPan="magnify" viewBox="0 0 1440 809.999993" height="1080" preserveAspectRatio="xMidYMid meet" version="1.0"><defs><clipPath id="20c9f909b0"><path d="M 551 181 L 1025 181 L 1025 696 L 551 696 Z M 551 181 " clip-rule="nonzero"/></clipPath><clipPath id="ed51ef629e"><path d="M 413.449219 37.046875 L 1102.480469 382.988281 L 921.769531 742.917969 L 232.738281 396.980469 Z M 413.449219 37.046875 " clip-rule="nonzero"/></clipPath><clipPath id="069f265d68"><path d="M 413.449219 37.046875 L 1102.480469 382.988281 L 921.769531 742.917969 L 232.738281 396.980469 Z M 413.449219 37.046875 " clip-rule="nonzero"/></clipPath><clipPath id="5fbf7365c2"><path d="M 413.449219 37.046875 L 1102.480469 382.988281 L 921.769531 742.917969 L 232.738281 396.980469 Z M 413.449219 37.046875 " clip-rule="nonzero"/></clipPath><clipPath id="0c3ffe4a55"><path d="M 591.214844 126.296875 L 1102.390625 382.941406 L 921.597656 743.035156 L 410.421875 486.394531 Z M 591.214844 126.296875 " clip-rule="nonzero"/></clipPath><clipPath id="e84164c447"><path d="M 328 157 L 612 157 L 612 241 L 328 241 Z M 328 157 " clip-rule="nonzero"/></clipPath><clipPath id="6965e23db5"><path d="M 413.449219 37.046875 L 1102.480469 382.988281 L 921.769531 742.917969 L 232.738281 396.980469 Z M 413.449219 37.046875 " clip-rule="nonzero"/></clipPath><clipPath id="c8aad3ebfa"><path d="M 413.449219 37.046875 L 1102.480469 382.988281 L 921.769531 742.917969 L 232.738281 396.980469 Z M 413.449219 37.046875 " clip-rule="nonzero"/></clipPath><clipPath id="352a4b7f52"><path d="M 413.449219 37.046875 L 1102.480469 382.988281 L 921.769531 742.917969 L 232.738281 396.980469 Z M 413.449219 37.046875 " clip-rule="nonzero"/></clipPath></defs><g clip-path="url(#20c9f909b0)"><g clip-path="url(#ed51ef629e)"><g clip-path="url(#069f265d68)"><g clip-path="url(#5fbf7365c2)"><g clip-path="url(#0c3ffe4a55)"><path fill="#0d5b70" d="M 619.277344 251.316406 C 609.210938 259.9375 594.054688 258.730469 585.464844 248.679688 C 576.855469 238.582031 578.042969 223.460938 588.109375 214.839844 C 598.191406 206.265625 613.316406 207.457031 621.9375 217.523438 C 630.53125 227.574219 629.359375 242.742188 619.277344 251.316406 Z M 551.726562 237.363281 L 560.765625 394.324219 L 806.144531 681.613281 C 820.226562 698.113281 845.027344 700.074219 861.539062 685.96875 L 1010.742188 558.589844 C 1027.210938 544.5 1029.167969 519.703125 1015.085938 503.203125 L 769.707031 215.910156 L 616.054688 182.425781 C 581.714844 174.96875 549.722656 202.289062 551.726562 237.363281 " fill-opacity="1" fill-rule="nonzero"/></g></g></g></g></g><g clip-path="url(#e84164c447)"><g clip-path="url(#6965e23db5)"><g clip-path="url(#c8aad3ebfa)"><g clip-path="url(#352a4b7f52)"><path fill="#fec82b" d="M 332.519531 218.507812 C 331.609375 218.050781 330.746094 217.421875 330.039062 216.554688 C 327.140625 213.175781 327.554688 208.117188 330.921875 205.25 C 371.03125 171.003906 422.058594 154.382812 474.597656 158.558594 C 527.117188 162.683594 574.941406 187.050781 609.183594 227.191406 C 612.085938 230.570312 611.667969 235.628906 608.304688 238.496094 C 604.9375 241.363281 599.863281 240.980469 596.996094 237.613281 C 565.511719 200.746094 521.609375 178.351562 473.332031 174.542969 C 425.082031 170.753906 378.203125 186 341.347656 217.441406 C 338.800781 219.617188 335.34375 219.925781 332.519531 218.507812 " fill-opacity="1" fill-rule="nonzero"/></g></g></g></g></svg>